<svg width="1024" height="576" viewBox="0 0 1024 576" xmlns="http://www.w3.org/2000/svg">
  <rect width="1024" height="576" fill="#070a14"/>
  <rect y="342" width="1024" height="234" fill="#130d1a"/>
  <rect y="430" width="1024" height="146" fill="#090811"/>
  <rect x="0" y="0" width="1024" height="162" fill="#091a3d"/>
  <rect x="0" y="148" width="1024" height="26" fill="#f84545"/>
  <rect x="0" y="174" width="1024" height="20" fill="#2f9fff"/>
  <rect x="0" y="194" width="1024" height="16" fill="#ff8a1d"/>
  <rect x="103" y="198" width="88" height="232" fill="#f6f8ff"/>
  <rect x="191" y="230" width="81" height="200" fill="#f84545"/>
  <rect x="272" y="184" width="63" height="246" fill="#2f9fff"/>
  <rect x="335" y="246" width="56" height="184" fill="#ff8a1d"/>
  <rect x="391" y="168" width="94" height="262" fill="#f84545"/>
  <rect x="485" y="214" width="85" height="216" fill="#f6f8ff"/>
  <rect x="570" y="184" width="74" height="246" fill="#2f9fff"/>
  <rect x="644" y="236" width="58" height="194" fill="#ff8a1d"/>
  <rect x="702" y="162" width="98" height="268" fill="#f84545"/>
  <rect x="800" y="220" width="72" height="210" fill="#f6f8ff"/>
  <rect x="872" y="178" width="84" height="252" fill="#2f9fff"/>
  <rect x="956" y="248" width="48" height="182" fill="#ff8a1d"/>
  <rect x="432" y="356" width="160" height="74" fill="#090811"/>
  <rect x="444" y="368" width="136" height="50" fill="#f84545"/>
  <rect x="456" y="380" width="112" height="26" fill="#f6f8ff"/>
  <rect x="308" y="454" width="410" height="14" fill="#f84545"/>
  <rect x="338" y="474" width="354" height="10" fill="#2f9fff"/>
  <rect x="362" y="490" width="308" height="8" fill="#ff8a1d"/>
  <rect x="102" y="526" width="824" height="7" fill="#f6f8ff"/>
</svg>
