<svg width="1024" height="576" viewBox="0 0 1024 576" xmlns="http://www.w3.org/2000/svg">
  <rect width="1024" height="576" fill="#0a0a17"/>
  <rect y="358" width="1024" height="218" fill="#12152b"/>
  <rect y="438" width="1024" height="138" fill="#07070f"/>
  <rect x="114" y="248" width="198" height="190" fill="#f84545"/>
  <rect x="134" y="268" width="158" height="150" fill="#ff8a1d"/>
  <rect x="156" y="290" width="114" height="106" fill="#f6f8ff"/>
  <rect x="376" y="212" width="270" height="226" fill="#2f9fff"/>
  <rect x="402" y="238" width="218" height="174" fill="#f84545"/>
  <rect x="432" y="268" width="158" height="114" fill="#ff8a1d"/>
  <rect x="454" y="290" width="114" height="70" fill="#f6f8ff"/>
  <rect x="710" y="248" width="198" height="190" fill="#f84545"/>
  <rect x="730" y="268" width="158" height="150" fill="#ff8a1d"/>
  <rect x="752" y="290" width="114" height="106" fill="#f6f8ff"/>
  <rect x="88" y="462" width="848" height="12" fill="#2f9fff"/>
  <rect x="124" y="482" width="776" height="10" fill="#f84545"/>
  <rect x="152" y="500" width="722" height="8" fill="#ff8a1d"/>
  <rect x="0" y="136" width="1024" height="10" fill="#f6f8ff"/>
  <rect x="0" y="150" width="1024" height="8" fill="#2f9fff"/>
</svg>
